<svg width="1440" height="2400" viewBox="0 0 1440 2400" fill="none" xmlns="http://www.w3.org/2000/svg">
  <rect width="1440" height="2400" fill="#F4F7FB"/>
  <rect width="1440" height="440" fill="url(#hero)"/>
  <rect x="120" y="520" width="1200" height="320" rx="22" fill="#FFFFFF" stroke="#DCE5EF"/>
  <rect x="120" y="890" width="384" height="260" rx="22" fill="#FFFFFF" stroke="#DCE5EF"/>
  <rect x="528" y="890" width="384" height="260" rx="22" fill="#FFFFFF" stroke="#DCE5EF"/>
  <rect x="936" y="890" width="384" height="260" rx="22" fill="#FFFFFF" stroke="#DCE5EF"/>
  <rect x="120" y="1230" width="384" height="250" rx="22" fill="#10233F"/>
  <rect x="528" y="1230" width="384" height="250" rx="22" fill="#10233F"/>
  <rect x="936" y="1230" width="384" height="250" rx="22" fill="#10233F"/>
  <rect x="120" y="1560" width="1200" height="220" rx="22" fill="url(#cta)"/>
  <text x="120" y="130" fill="#D3EEFF" font-size="14" font-family="Poppins" font-weight="700">PAGE 01</text>
  <text x="120" y="200" fill="white" font-size="58" font-family="Poppins" font-weight="700">Accueil - KRAAK</text>
  <text x="120" y="246" fill="white" font-size="22" font-family="Poppins">Developpez votre potentiel, construisez votre impact.</text>
  <defs>
    <linearGradient id="hero" x1="0" y1="0" x2="1440" y2="440" gradientUnits="userSpaceOnUse">
      <stop stop-color="#10233F"/>
      <stop offset="0.6" stop-color="#0F6CAD"/>
      <stop offset="1" stop-color="#35BFD7"/>
    </linearGradient>
    <linearGradient id="cta" x1="120" y1="1560" x2="1320" y2="1780" gradientUnits="userSpaceOnUse">
      <stop stop-color="#0F6CAD"/>
      <stop offset="1" stop-color="#0E2A4A"/>
    </linearGradient>
  </defs>
</svg>
